# xmcd
#
# Track frame offsets:
# 150
# 26902
# 61170
# 82772
# 117035
# 160272
# 175300
# 201527
# 230672
# 269005
#
# Disc length: 4371 seconds
#
#
# Revision: 0
# Processed by: cddbd v1.5.1PL0 Copyright (c) Steve Scherf et al.
# Submitted via: FreeRIP 2.12 
#
DISCID=8811110a
DTITLE=Groundhogs - No Surrender
DYEAR=1900
DGENRE=Rock
TTITLE0=Razor`s Edge
TTITLE1=Baby Have I Done This Wrong
TTITLE2=I Want You To Love Me
TTITLE3=Light My Light
TTITLE4=Split Part 2
TTITLE5=Superceded
TTITLE6=Garden
TTITLE7=Split Part 1
TTITLE8=Groundhog Blues
TTITLE9=Cherry Red
EXTD=
EXTT0=
EXTT1=
EXTT2=
EXTT3=
EXTT4=
EXTT5=
EXTT6=
EXTT7=
EXTT8=
EXTT9=
PLAYORDER=
